<svg width="795" height="179" viewBox="0 0 795 179" fill="none" xmlns="http://www.w3.org/2000/svg">
<path d="M37.5928 150.25L71.5928 152.5C88.5928 153.5 103.343 147.75 115.843 137.25H116.593L103.593 170.5H0.842774V169.75C13.5928 165.25 12.0928 146.75 12.0928 135.5V41.25C12.0928 29.75 13.5928 11.5 0.842774 6.74999V5.99999H48.5928V6.74999C35.8428 11.5 37.5928 30 37.5928 41.25V150.25ZM219.476 1.75C271.976 1.49999 308.976 41.5 308.976 86.5C308.976 137.5 266.726 174.5 216.976 174.5C167.476 174.5 125.726 139 125.726 87.75C125.726 40.25 166.976 0.499998 219.476 1.75ZM217.726 19.75C178.976 19.75 154.226 47.75 154.226 85.5C154.226 120.5 178.976 156.5 218.226 156.5C256.226 156.5 280.476 128.75 280.476 91.5C280.476 55 257.226 19.75 217.726 19.75ZM462.794 6.25V35H462.044C451.794 23.5 432.794 20 417.544 20C378.544 20 348.794 45.5 348.794 85.75C348.794 126 380.794 156.5 420.294 156.5C431.794 156.5 443.794 155 455.044 151.75V115.75C455.044 104.25 454.794 92 443.544 87.5V86.75H481.794V87.5C480.544 90.5 480.544 94.5 480.544 98.25V155.75C480.544 159.5 480.294 163.5 481.794 167C461.794 170.75 442.294 174.5 422.044 174.5C358.044 174.5 320.294 139.5 320.294 89.25C320.294 35.5 363.044 1.99999 423.544 1.99999C436.794 1.99999 449.794 3.49999 462.794 6.25ZM575.284 135.5V41.25C575.284 29.75 577.034 11.5 564.284 6.74999V5.99999H611.784V6.74999C599.284 11.5 600.784 30 600.784 41.25V135.5C600.784 146.75 599.284 165 611.784 169.75V170.5H564.284V169.75C576.784 165.25 575.284 146.75 575.284 135.5ZM659.476 41.25V138C659.476 152 659.226 162 672.476 169.75V170.5H628.226V169.75C641.476 162 641.476 152 641.476 138V38.25C641.476 24.25 641.476 14.25 628.476 6.74999V5.99999H664.976V6.25C665.976 9.24999 666.976 10.5 668.726 12.5L672.226 17.5L763.726 133V38.25C763.726 24.25 763.976 14.25 750.726 6.74999V5.99999H794.726V6.74999C781.726 14.25 781.726 24.25 781.726 38.25V178.5C763.976 172.5 756.226 164.25 745.226 150L659.476 41.25Z" fill="black"/>
</svg>
